<?xml version="1.0"?>
<svg xmlns="http://www.w3.org/2000/svg" viewBox="0 0 64 64" width="512px" height="512px" class=""><g><g id="Flat"><polygon points="44 12 38 18 32 15 44 12" style="fill:#fdb62f" data-original="#FDB62F" class=""/><path d="M10,61V36A10,10,0,0,1,20,26H44A10,10,0,0,1,54,36V61Z" style="fill:#fdb62f" data-original="#FDB62F" class=""/><rect x="14" y="36" width="36" height="25" style="fill:#f5cf68" data-original="#F5CF68" class=""/><polygon points="39 61 46 61 46 54 39 61" style="fill:#784a42" data-original="#784A42" class=""/><polygon points="39 54 39 61 46 54 39 54" style="fill:#8E5853" data-original="#8E5853" class=""/><rect x="31" y="30" width="2" height="2" style="fill:#592c02" data-original="#592C02" class=""/><rect x="27" y="30" width="2" height="2" style="fill:#592c02" data-original="#592C02" class=""/><rect x="35" y="30" width="2" height="2" style="fill:#592c02" data-original="#592C02" class=""/><path d="M59.913,3.783,56,3H52L4,19l1,1,12.849-.714a39.98,39.98,0,0,0,10.061-1.87L54,9l6.181-2.649A1.352,1.352,0,0,0,61,5.108h0A1.351,1.351,0,0,0,59.913,3.783Z" style="fill:#595D63" data-original="#6CBBC7" class="active-path" data-old_color="#6CBBC7"/><polygon points="39 10 17 4 13 6 29 13 39 10" style="fill:#fdb62f" data-original="#FDB62F" class=""/><polygon points="13 16 7 11 4 12 7 18 13 16" style="fill:#fdb62f" data-original="#FDB62F" class=""/><rect x="23" y="30" width="2" height="2" style="fill:#592c02" data-original="#592C02" class=""/><rect x="39" y="30" width="2" height="2" style="fill:#592c02" data-original="#592C02" class=""/><polygon points="32 61 39 61 39 54 32 61" style="fill:#784a42" data-original="#784A42" class=""/><polygon points="32 54 32 61 39 54 32 54" style="fill:#8E5853" data-original="#8E5853" class=""/><polygon points="25 61 32 61 32 54 25 61" style="fill:#784a42" data-original="#784A42" class=""/><polygon points="25 54 25 61 32 54 25 54" style="fill:#8E5853" data-original="#8E5853" class=""/><polygon points="18 61 25 61 25 54 18 61" style="fill:#784a42" data-original="#784A42" class=""/><polygon points="18 54 18 61 25 54 18 54" style="fill:#8E5853" data-original="#8E5853" class=""/><polygon points="32 54 39 54 39 47 32 54" style="fill:#784a42" data-original="#784A42" class=""/><polygon points="32 47 32 54 39 47 32 47" style="fill:#8E5853" data-original="#8E5853" class=""/><polygon points="25 54 32 54 32 47 25 54" style="fill:#784a42" data-original="#784A42" class=""/><polygon points="25 47 25 54 32 47 25 47" style="fill:#8E5853" data-original="#8E5853" class=""/><polygon points="32 47 39 47 39 40 32 47" style="fill:#784a42" data-original="#784A42" class=""/><polygon points="32 40 32 47 39 40 32 40" style="fill:#8E5853" data-original="#8E5853" class=""/><rect x="2" y="60" width="60" height="2" style="fill:#592c02" data-original="#592C02" class=""/></g></g> </svg>
